<svg width="1200" height="360" viewBox="0 0 1200 360" fill="none" xmlns="http://www.w3.org/2000/svg">
  <defs>
    <linearGradient id="gradA" x1="110" y1="42" x2="350" y2="275" gradientUnits="userSpaceOnUse">
      <stop offset="0%" stop-color="#FFD2E5"/>
      <stop offset="45%" stop-color="#F6A9D2"/>
      <stop offset="100%" stop-color="#D7B8FF"/>
    </linearGradient>
    <linearGradient id="gradLine" x1="80" y1="145" x2="420" y2="255" gradientUnits="userSpaceOnUse">
      <stop offset="0%" stop-color="#FFD1E4"/>
      <stop offset="55%" stop-color="#E8BEFF"/>
      <stop offset="100%" stop-color="#C7C0FF"/>
    </linearGradient>
    <linearGradient id="gradMini" x1="590" y1="245" x2="820" y2="245" gradientUnits="userSpaceOnUse">
      <stop offset="0%" stop-color="#FFD0E2"/>
      <stop offset="100%" stop-color="#DEC1FF"/>
    </linearGradient>
  </defs>

  <!-- Symbol -->
  <g transform="translate(40,22)">
    <path d="M145 250C162 206 180 158 201 110C218 72 229 52 240 52C252 52 260 75 276 111C297 158 315 205 330 250"
          stroke="url(#gradA)" stroke-width="18" stroke-linecap="round" stroke-linejoin="round"/>
    <path d="M182 182C220 177 256 177 295 182"
          stroke="url(#gradA)" stroke-width="10" stroke-linecap="round"/>

    <path d="M78 208C116 158 174 145 225 151C292 159 350 190 375 163C390 147 382 126 359 121"
          stroke="url(#gradLine)" stroke-width="7" stroke-linecap="round"/>
    <circle cx="358" cy="121" r="7" fill="#FFD0E2"/>

    <path d="M116 241C146 241 153 224 175 224H213C227 224 235 211 235 198"
          stroke="url(#gradLine)" stroke-width="6" stroke-linecap="round" stroke-linejoin="round"/>
    <circle cx="116" cy="241" r="8" fill="none" stroke="#E4CBFF" stroke-width="5"/>
    <circle cx="176" cy="224" r="7" fill="none" stroke="#E4CBFF" stroke-width="5"/>
    <circle cx="235" cy="198" r="7" fill="none" stroke="#E4CBFF" stroke-width="5"/>

    <!-- Gear -->
    <g transform="translate(265,202)">
      <circle cx="44" cy="44" r="33" fill="none" stroke="#F2E9FF" stroke-width="9"/>
      <g stroke="#F2E9FF" stroke-width="8" stroke-linecap="round">
        <path d="M44 1V10"/><path d="M44 78V87"/>
        <path d="M1 44H10"/><path d="M78 44H87"/>
        <path d="M13 13L20 20"/><path d="M68 68L75 75"/>
        <path d="M13 75L20 68"/><path d="M68 20L75 13"/>
      </g>
      <path d="M29 44L39 54L60 33" stroke="#FFFFFF" stroke-width="8" stroke-linecap="round" stroke-linejoin="round"/>
    </g>

    <!-- Sparkle -->
    <g transform="translate(385,92)">
      <path d="M0 18C12 16 16 12 18 0C20 12 24 16 36 18C24 20 20 24 18 36C16 24 12 20 0 18Z" fill="#E8C9FF"/>
    </g>
  </g>

  <!-- Wordmark -->
  <g transform="translate(455,78)">
    <text x="0" y="105"
          font-family="Georgia, 'Times New Roman', serif"
          font-size="86"
          font-weight="500"
          fill="#FFFFFF">
      Automate-it
    </text>

    <line x1="40" y1="164" x2="145" y2="164" stroke="#F2B9DA" stroke-width="3" stroke-linecap="round"/>
    <text x="174" y="177"
          font-family="Arial, Helvetica, sans-serif"
          font-size="34"
          font-weight="500"
          letter-spacing="18"
          fill="url(#gradMini)">
      MINI
    </text>
    <line x1="370" y1="164" x2="475" y2="164" stroke="#D7BBF7" stroke-width="3" stroke-linecap="round"/>

    <text x="14" y="230"
          font-family="Arial, Helvetica, sans-serif"
          font-size="18"
          letter-spacing="7"
          fill="#F2EAF8">
      AUTOMAÇÃO  •  TESTES  •  RESULTADOS
    </text>
  </g>
</svg>
